<svg width="56" height="56" viewBox="0 0 56 56" fill="none" xmlns="http://www.w3.org/2000/svg">
<g clip-path="url(#clip0_399_239)">
<g clip-path="url(#clip1_399_239)">
<g clip-path="url(#clip2_399_239)">
<path d="M53.382 16.1616C48.9216 6.6164 39.2336 0 28 0C16.7664 0 7.0784 6.6164 2.618 16.1616L5.7904 17.64C9.6936 9.2876 18.172 3.5 28 3.5C37.828 3.5 46.3064 9.2876 50.2096 17.64L53.382 16.1616ZM4.9728 19.6168L1.6828 18.4184C0.5936 21.4088 0 24.6344 0 28C0 31.3656 0.5936 34.5912 1.6828 37.5816L4.9728 36.3832C4.0208 33.768 3.5 30.9428 3.5 28C3.5 25.0544 4.0208 22.232 4.9728 19.6168ZM2.618 39.8384C7.0784 49.3864 16.7664 56 28 56C39.2336 56 48.9216 49.3864 53.382 39.8384L50.2096 38.36C46.3064 46.7124 37.828 52.5 28 52.5C18.172 52.5 9.6936 46.7124 5.7904 38.36L2.618 39.8384ZM51.0272 19.6168C51.9792 22.232 52.5 25.0572 52.5 28.0028C52.5 30.9484 51.9792 33.7708 51.0272 36.386L54.3172 37.5844C55.4064 34.594 56 31.3684 56 28.0028C56 24.6372 55.4064 21.4088 54.3172 18.4212L51.0272 19.6168Z" fill="#262626"/>
<path d="M23.0944 22.4058C22.4 22.4058 21.6524 22.529 21.0028 22.669V16.8198L18.0908 17.1362V32.8386C19.2948 33.2194 20.8572 33.5806 22.4 33.5806C25.9056 33.5806 27.9748 32.3962 27.9748 27.9946C27.9748 23.5902 25.9028 22.4058 23.0944 22.4058ZM22.6296 31.083C22.1004 31.083 21.6356 31.0186 21.0028 30.8702V25.119C21.5264 24.9986 22.0472 24.9034 22.6296 24.9034C24.2144 24.9034 24.9732 25.623 24.9732 27.9918C24.976 30.3634 24.2144 31.083 22.6296 31.083Z" fill="#262626"/>
<path d="M34.4232 26.7118C33.1772 26.6894 32.396 26.6698 32.396 25.9922C32.396 25.1046 32.9252 24.9142 34.5296 24.9142C35.5012 24.9142 36.8732 25.1046 37.7384 25.3146L37.506 22.9066C36.3888 22.5678 35.1428 22.4194 34.3196 22.4194C30.814 22.4194 29.4644 23.6878 29.4644 26.0762C29.4644 28.3806 30.8784 28.9714 33.264 29.0134C34.804 29.033 35.6076 28.991 35.6076 30.0074C35.6076 30.895 34.9104 31.0854 33.4124 31.0854C31.7436 31.0854 30.562 30.8306 29.6968 30.5562L29.9292 32.9642C31.0492 33.3646 32.1048 33.5774 33.6448 33.5774C37.3828 33.5774 38.542 32.309 38.542 30.027C38.5392 27.1542 36.6604 26.7538 34.4232 26.7118Z" fill="#262626"/>
<path d="M11.3344 22.4194C10.4048 22.4194 9.15881 22.5678 8.04161 22.9066L7.80921 25.3146C8.73881 25.1046 10.1108 24.9142 11.018 24.9142C12.5384 24.9142 13.1488 25.0402 13.1488 26.2666V26.6054L11.1216 26.7118C8.88442 26.8378 7.00562 27.2186 7.00562 30.0298C7.00562 32.3118 8.16762 33.5802 11.6704 33.5802C13.2972 33.5802 14.8568 33.2218 16.0608 32.841V26.0762C16.0608 23.6906 14.7336 22.4194 11.3344 22.4194ZM13.1488 31.0014C12.768 31.0658 12.2612 31.1498 11.7348 31.1498C10.4692 31.1498 9.94002 30.7466 9.94002 29.8814C9.94002 28.9742 10.4468 28.8258 11.5024 28.7614L13.1488 28.655V31.0014Z" fill="#262626"/>
<path d="M44.2652 22.4194C43.3356 22.4194 42.0896 22.5678 40.9724 22.9066L40.74 25.3146C41.6696 25.1046 43.0416 24.9142 43.9488 24.9142C45.4692 24.9142 46.0796 25.0402 46.0796 26.2666V26.6054L44.0524 26.7118C41.8152 26.8378 39.9364 27.157 39.9364 30.0298C39.9364 32.3118 41.0984 33.5802 44.6012 33.5802C46.228 33.5802 47.7876 33.2218 48.9916 32.841V26.0762C48.9944 23.6906 47.6644 22.4194 44.2652 22.4194ZM46.0796 31.0014C45.6988 31.0658 45.192 31.1498 44.6656 31.1498C43.4 31.1498 42.8708 30.7466 42.8708 29.8814C42.8708 28.9742 43.3776 28.8258 44.4332 28.7614L46.0796 28.655V31.0014Z" fill="#262626"/>
</g>
</g>
</g>
<defs>
<clipPath id="clip0_399_239">
<rect width="56" height="56" fill="white"/>
</clipPath>
<clipPath id="clip1_399_239">
<rect width="56" height="56" fill="white"/>
</clipPath>
<clipPath id="clip2_399_239">
<rect width="56" height="56" fill="white"/>
</clipPath>
</defs>
</svg>
