<svg width="128" height="54" viewBox="0 0 128 54" fill="none" xmlns="http://www.w3.org/2000/svg">
<g clip-path="url(#clip0_399_222)">
<g clip-path="url(#clip1_399_222)">
<g clip-path="url(#clip2_399_222)">
<path d="M19.6343 50.2174V50.4553C18.8969 51.4544 18.778 52.4535 18.778 53.3099C18.8017 53.5478 18.7066 53.6667 18.5163 53.6667C18.3022 53.6667 18.207 53.5478 18.207 53.3099C18.207 52.5487 18.4687 51.8112 19.1586 50.8835V50.7883H17.8978C17.7788 50.7883 17.6837 50.8597 17.6361 50.9548H17.4934L17.5647 50.2174H19.6343ZM9.61936 50.2174V53.4051L10.0238 53.4526V53.6429H8.62024V53.4526L9.02465 53.4051V50.7883H8.62024V50.5504C8.88192 50.5266 9.16738 50.4315 9.28632 50.2174H9.61936ZM12.1409 50.1698C12.807 50.1698 13.2114 50.5266 13.2114 50.931C13.2352 51.2879 12.9735 51.5495 12.6167 51.6685L12.6405 51.7399C13.0211 51.954 13.378 52.2394 13.378 52.6914C13.378 53.2148 12.926 53.6429 12.2123 53.6429C11.4749 53.6429 10.9991 53.2623 10.9991 52.8341C10.9991 52.4535 11.2846 52.1681 11.689 52.0491L11.6652 51.9302C11.3559 51.7399 11.0705 51.4544 11.0705 51.0738C11.0705 50.5742 11.4749 50.1698 12.1409 50.1698ZM15.6379 50.146C16.1612 50.146 16.5418 50.4077 16.5418 50.7407C16.518 50.9786 16.3991 51.0738 16.2564 51.0738C16.1374 51.0738 16.0185 50.9548 15.9947 50.8121C15.9947 50.6932 16.0423 50.598 16.0661 50.4553C15.9947 50.4077 15.9233 50.4077 15.8044 50.4077C15.2335 50.4077 15.0194 51.05 15.0194 52.0967H15.0669C15.1621 51.7161 15.4476 51.5258 15.7568 51.5258C16.3277 51.5258 16.6608 51.954 16.6608 52.4773C16.6608 53.1434 16.185 53.6429 15.4951 53.6429C14.6387 53.6429 14.3057 52.8341 14.3057 52.2156C14.3057 50.931 14.9004 50.146 15.6379 50.146ZM11.9268 52.0729C11.6414 52.2156 11.5224 52.5011 11.5224 52.7866C11.5224 53.1672 11.7128 53.4288 12.2123 53.4288C12.6167 53.4288 12.7594 53.1672 12.7594 52.8341C12.7594 52.4773 12.4026 52.2632 12.0934 52.1443C12.0458 52.1205 11.9744 52.0967 11.9268 52.0729ZM15.5189 51.8588C15.3048 51.8588 15.0907 52.0253 14.9956 52.3346C15.0194 52.8103 15.0907 53.4051 15.5665 53.4051C15.8995 53.4051 15.9947 53.072 15.9947 52.5962C15.9947 52.1443 15.852 51.8588 15.5189 51.8588ZM12.1647 50.3839C11.8317 50.3839 11.7128 50.6218 11.7128 50.931C11.7128 51.2641 12.022 51.4782 12.2837 51.5733C12.3313 51.5971 12.3788 51.6209 12.4264 51.6447C12.6167 51.502 12.7119 51.2403 12.7119 50.9786C12.7119 50.6456 12.5691 50.3839 12.1647 50.3839ZM49.4176 38.5372L49.4414 38.9654L48.3947 39.0844V45.5548C48.3947 47.7672 46.8009 48.8377 44.5172 48.8377C42.6617 48.8377 40.8775 47.791 40.8775 45.6976V39.0844L39.807 38.9654L39.8308 38.5372L41.496 38.5848L43.2802 38.5372V38.9654L42.2572 39.0844V45.65C42.2572 47.2676 43.3039 48.0288 44.9691 48.0288C46.6343 48.0288 47.7048 47.2438 47.7048 45.5073V39.0844L46.6581 38.9654V38.5372L48.0854 38.5848L49.4176 38.5372ZM99.2308 38.3945C100.301 38.3945 101.134 38.9178 101.443 39.2747L101.681 38.5134H102.181V41.2253H101.633C101.419 39.6553 100.42 38.9178 99.2784 38.9178C97.9938 38.9178 97.3991 39.6077 97.3991 40.6544C97.3991 41.7249 98.6837 42.1531 99.9207 42.8192C101.705 43.7469 102.585 44.6509 102.585 45.8641C102.585 47.7434 101.134 48.7901 99.4925 48.7901C98.3506 48.7901 97.5418 48.3381 97.0185 47.8148L96.7806 48.6473H96.3524V45.7927L96.9233 45.7689C97.1612 47.4341 97.8511 48.2429 99.4687 48.2429C100.658 48.2429 101.419 47.5055 101.419 46.3874C101.419 45.1504 100.063 44.6033 99.0643 44.0799C96.9471 43.0808 96.3286 42.1055 96.3286 40.9636C96.3286 39.3698 97.8511 38.3945 99.2308 38.3945ZM90.0247 38.561C92.5224 38.561 93.8546 39.6077 93.8546 41.035C93.8546 42.4623 92.8079 43.0808 91.3806 43.3663L91.4282 43.6042C93.022 43.6518 93.7357 44.6033 93.7357 45.7689V46.435C93.7357 47.672 93.9973 48.1478 94.4255 48.1478C94.6634 48.1478 94.8299 47.9813 94.9727 47.6482L95.2343 47.8385C94.9251 48.4095 94.5207 48.7663 93.807 48.7663C92.8317 48.7663 92.3797 47.8623 92.3797 46.4588V45.7689C92.3797 44.9125 91.9039 43.8421 90.8572 43.8421H88.6925V48.1478L89.7392 48.3143V48.6949L88.0502 48.6711L86.2661 48.6949V48.3143L87.3365 48.1478V39.0844L86.2661 38.9654L86.2898 38.561H90.0247ZM19.8246 30.0447H18.8731V29.7592H17.9691V30.0447H17.0176V29.7592H16.1136V30.0447H15.1859V29.7592H14.2581V30.0447H13.3304V29.7592H12.3788V30.0447H11.4511V29.7592H10.5233V30.0447H9.59557V29.7592H8.66782V30.0447H7.74007V29.7592H6.81231V30.0447H5.93214V30.3302H5.88456V29.7592H5.91929L5.24227 28.5222H5.93214V26.3575L5.96044 26.3246C6.05917 26.2143 6.1046 26.2088 6.17002 26.1434C6.2176 26.0958 5.97971 26.0482 6.07487 25.8817C6.19381 25.6438 5.95592 25.5487 5.95592 25.4535C5.95592 25.3108 6.09866 25.3108 6.19381 25.1681C6.24139 25.0729 6.07487 24.8112 6.26518 24.7874L6.29145 24.798C6.41556 24.8651 6.29176 25.1009 6.33654 25.1681C6.4317 25.3108 6.57443 25.3108 6.57443 25.4535C6.57443 25.5487 6.33654 25.6676 6.45548 25.8817C6.52685 26.0244 6.31275 26.0958 6.36033 26.1434C6.4317 26.2147 6.47927 26.191 6.59822 26.3575H8.64403V24.3592L9.09601 24.359V24.0262L9.35769 17.1751L9.50042 16.8658L11.8555 16.0808L15.3048 15.9857C15.3048 16.0095 17.9454 16.6042 17.9454 16.6042C17.9454 16.628 18.6828 17.2703 18.6828 17.2703L18.8255 17.5319L19.0365 24.359L19.5154 24.3592V26.3575H21.0141C21.133 26.2147 21.1806 26.2147 21.252 26.1434C21.2995 26.0958 21.0617 26.0482 21.1568 25.8817C21.2757 25.6438 21.0379 25.5487 21.0379 25.4535C21.0379 25.3108 21.1806 25.3108 21.2757 25.1681C21.3233 25.0729 21.1568 24.8112 21.3471 24.7874L21.3734 24.798C21.4975 24.8651 21.3737 25.1009 21.4185 25.1681C21.5136 25.3108 21.6564 25.3108 21.6564 25.4535C21.6564 25.5487 21.4185 25.6676 21.5374 25.8817C21.6088 26.0244 21.3947 26.0958 21.4423 26.1434C21.5136 26.2147 21.5612 26.191 21.6802 26.3575V28.5222H22.37L21.6802 29.783L21.6799 29.8511L21.6802 30.0447L21.6564 41.0826H22.822L22.1321 42.3434V44.6509H26.1286C26.2476 44.4844 26.2951 44.4844 26.3665 44.413C26.4141 44.3654 26.2 44.3178 26.2713 44.1513C26.3903 43.9134 26.1524 43.8183 26.1524 43.7231C26.1524 43.5804 26.2951 43.5804 26.3903 43.4377C26.4379 43.3663 26.2713 43.0808 26.4617 43.057L26.4879 43.0676C26.612 43.1347 26.4882 43.3705 26.533 43.4377C26.6282 43.5804 26.7709 43.5804 26.7709 43.7231C26.7709 43.8183 26.533 43.9372 26.652 44.1513C26.7233 44.294 26.5092 44.3654 26.5568 44.413C26.6282 44.5081 26.6757 44.4844 26.7947 44.6509V44.6747H27.5321L26.8423 45.9355V48.7187H0.888965V45.9355L0.199097 44.6747H0.888965C1.00791 44.5081 1.05548 44.5081 1.12685 44.4368C1.17443 44.3892 0.96033 44.3416 1.0317 44.1751C1.15064 43.9372 0.912753 43.8421 0.912753 43.7469C0.912753 43.6042 1.05548 43.6042 1.15064 43.4614C1.19822 43.3663 1.0317 43.1046 1.222 43.0808L1.24828 43.0914C1.37239 43.1585 1.24859 43.3943 1.29337 43.4614C1.38852 43.6042 1.53126 43.6042 1.53126 43.7469C1.53126 43.8421 1.29337 43.961 1.41231 44.1751C1.48368 44.3178 1.26958 44.3892 1.31716 44.4368C1.38852 44.5081 1.4361 44.4844 1.55504 44.6509H5.48015V42.3434L4.7665 41.0826H5.93214V30.3302H21.6564V30.0447H20.7524V29.7592H19.8246V30.0447ZM127.016 38.5134V38.9178L126.112 39.1081L123.138 44.4844V48.1478L124.185 48.3381V48.7187L122.472 48.6949L120.736 48.7187V48.3381L121.782 48.1716V44.4844L118.785 39.1081L117.881 38.894V38.5134L119.522 38.5372L121.259 38.5134V38.894L120.355 39.0606V39.2033L122.781 43.7707L125.16 39.2747V39.0844L124.185 38.9178V38.5134L125.826 38.5372L127.016 38.5134ZM107.89 38.561V38.9654L106.867 39.0844V48.124L107.866 48.3143V48.6949L106.201 48.6711L104.417 48.6949V48.3143L105.487 48.1478V39.0844L104.417 38.9654L104.441 38.561L106.201 38.6086L107.89 38.561ZM65.4987 38.561V38.9654L64.4758 39.0844V48.124L65.4749 48.3143V48.6949L63.8097 48.6711L62.0255 48.6949V48.3143L63.096 48.1478V39.0844L62.0255 38.9654L62.0493 38.561L63.8097 38.6086L65.4987 38.561ZM60.6696 38.5372V38.9178L59.6229 39.0844C59.6229 39.0844 59.5078 40.6724 59.504 42.5581L59.5039 48.6711H58.5762L52.4387 40.7496V44.3178C52.4387 46.7681 52.5577 48.124 52.5577 48.124L53.652 48.3143V48.6949L52.1771 48.6711L50.5357 48.6949V48.3143L51.6299 48.1478C51.6299 48.1478 51.7251 46.887 51.7251 44.294V39.8218C51.7251 39.1302 51.2451 39.0479 50.7405 38.973L50.6585 38.9609C50.6175 38.9547 50.5764 38.9484 50.5357 38.9416L50.5594 38.5372L52.6053 38.5848L58.8141 46.7205V42.6051C58.8141 40.702 58.7189 39.1081 58.7189 39.1081L57.4819 38.9178V38.5372L59.0757 38.561L60.6696 38.5372ZM84.0061 38.5372L84.0537 41.2015H83.5066L83.4114 40.8685C83.1736 39.9645 82.5788 39.1319 81.2229 39.1319H78.9868V43.2949H79.6291C80.652 43.3187 81.4132 43.0333 81.4132 42.2244V41.939H81.8652V45.2218H81.4132V44.9363C81.4132 44.1275 80.6757 43.8421 79.6528 43.8421H79.0106V48.1002H81.6987C82.9832 48.1002 83.8396 47.339 84.1013 46.4112L84.1965 46.0544L84.7436 46.0782L84.4581 48.6711H78.3683L76.5841 48.6949V48.3143L77.6546 48.1478V39.0844L76.5841 38.9654L76.6079 38.561H84.0061V38.5372ZM117.215 38.5372L117.381 41.1777H116.811L116.668 40.7496C116.359 39.8218 115.907 39.1081 114.693 39.1319H113.813V48.1478L114.884 48.2667L114.86 48.6711L113.171 48.6236L111.434 48.6711V48.2667L112.433 48.1478V39.1319H111.458C110.269 39.1081 109.793 39.8218 109.484 40.7496L109.341 41.1777H108.794L108.96 38.5372H117.215ZM75.918 38.5134V38.894L74.9665 39.0844L71.5172 48.6473H70.7797L67.3066 39.0844L66.3313 38.894V38.5134L68.044 38.5372L69.733 38.5134V38.894L68.6863 39.0606L71.4696 46.8632L74.1577 39.0606L73.111 38.894V38.5134L74.6335 38.5372L75.918 38.5134ZM25.9145 45.5548H1.6502L1.91187 45.8403H25.6528L25.9145 45.5548ZM89.9295 39.1081H88.6925V43.2711H89.6202C91.8088 43.3187 92.4273 42.0817 92.4273 41.0588C92.4273 40.1311 91.8564 39.1081 89.9295 39.1081ZM21.4423 42.0579H6.09866L6.26518 42.3434H21.2757L21.4423 42.0579ZM13.9013 32.5425C12.1885 32.5425 10.8088 33.8509 10.8088 35.4923C10.8088 37.1337 12.1885 38.4659 13.9013 38.4421C15.6141 38.4421 16.9938 37.1337 16.9938 35.4923C16.9938 33.8747 15.6141 32.5425 13.9013 32.5425ZM13.8061 33.5416L13.8537 35.302L16.0423 36.4676L13.4731 35.4923L13.8061 33.5416ZM62.4537 18.6262C66.4978 18.6262 69.0432 21.8377 69.0432 26.0482C69.0432 30.2588 66.474 33.4465 62.4537 33.4465C58.4097 33.4465 55.8405 30.2588 55.8405 26.0482C55.8405 21.8377 58.4097 18.6262 62.4537 18.6262ZM107.01 18.8165C110.411 18.8165 112.243 20.2914 112.243 22.361C112.243 24.383 110.816 25.287 108.865 25.6676L108.937 26.0007C111.101 26.072 112.1 27.428 112.1 29.0932V30.0447C112.1 31.8288 112.481 32.4949 113.028 32.4949C113.361 32.4949 113.575 32.257 113.766 31.7813L114.146 32.0429C113.718 32.8518 113.171 33.3513 112.196 33.3513C110.887 33.3513 110.245 32.0667 110.245 30.0447V29.0456C110.245 27.8086 109.603 26.2861 108.152 26.2861H104.655V32.4236L106.129 32.7566V33.3037L103.822 33.2562L101.396 33.3037V32.7566L102.847 32.5425V19.6015L101.372 19.4112L101.396 18.8165H107.01ZM120.403 18.8403C125.018 18.8403 127.682 22.1231 127.682 25.8817C127.682 30.7108 124.518 33.2799 120.403 33.2799H117.5L115.098 33.3275V32.7804L116.525 32.5663V19.6253L115.05 19.435L115.098 18.8403H120.403ZM94.4731 18.8165L99.2784 32.4949L100.587 32.7566V33.3037L98.2555 33.2562L95.9004 33.3037V32.7566L97.3515 32.5425L96.1383 28.9742H90.881C90.1436 31.139 89.7392 32.5425 89.7392 32.5425L91.2617 32.7566V33.3037L89.1445 33.2562L87.2652 33.3037V32.7566L88.4784 32.5663C88.4784 32.5663 89.3586 30.4729 90.1912 28.0227L93.3788 18.8165H94.4731ZM54.3418 18.5548V19.1495L52.9383 19.3399V32.4711L54.3656 32.7328V33.2799L52.0343 33.2324L49.5841 33.2799V32.7328L51.0352 32.4949V26.4526H43.1612V32.4711L44.5885 32.7566V33.3037L42.2572 33.2562L39.7832 33.3037V32.7566L41.2581 32.5187V19.3399L39.7594 19.1495L39.7832 18.5548L42.2097 18.6024L44.5647 18.5548V19.1495L43.1374 19.3399V25.5249H51.0114V19.3399L49.5603 19.1495L49.5841 18.5548L51.9868 18.6024L54.3418 18.5548ZM69.2097 18.8165L71.5647 18.8641L74.1339 18.8403V19.5064L72.5876 19.7205L72.5639 19.9108L75.252 30.1161L78.9392 18.8403H80.1048L84.0299 30.1874L86.3612 19.887V19.7205L84.5295 19.4588V18.8641L86.7894 18.9117L88.8114 18.8641V19.4826L87.4793 19.7681L84.1013 33.2799H83.2687L79.1295 21.3619L75.1092 33.2799H74.2291V33.2562L70.518 19.7443L69.1859 19.4112L69.2097 18.8165ZM62.4537 19.5302C59.2185 19.5302 58.0766 22.361 58.0766 26.0482C58.0766 29.7355 59.2185 32.5663 62.4537 32.5663C65.689 32.5663 66.8308 29.7592 66.8308 26.0482C66.8308 22.361 65.689 19.5302 62.4537 19.5302ZM120.046 19.6728L118.404 19.6967V32.4473H120.236C124.542 32.5187 125.612 28.8553 125.612 25.9293C125.612 23.1222 124.161 19.6491 120.046 19.6728ZM7.24051 26.7619H6.97883V28.4509H7.24051V26.7619ZM8.07311 26.7619H7.81143V28.4509H8.07311V26.7619ZM8.90571 26.7619H8.64403V28.4509H8.90571V26.7619ZM9.7383 26.7619H9.47663V28.4509H9.7383V26.7619ZM10.5709 26.7619H10.3092V28.4509H10.5709V26.7619ZM11.4035 26.7619H11.1418V28.4509H11.4035V26.7619ZM12.2361 26.7619H11.9744V28.4509H12.2361V26.7619ZM13.0687 26.7619H12.807V28.4509H13.0687V26.7619ZM14.7339 26.7619H14.4722V28.4509H14.7339V26.7619ZM15.5665 26.7619H15.3048V28.4509H15.5665V26.7619ZM16.3991 26.7619H16.1374V28.4509H16.3991V26.7619ZM17.2317 26.7619H16.97V28.4509H17.2317V26.7619ZM18.0643 26.7619H17.8026V28.4509H18.0643V26.7619ZM18.8969 26.7619H18.6352V28.4509H18.8969V26.7619ZM20.5621 26.7619H20.3004V28.4509H20.5621V26.7619ZM19.7295 26.7619H19.4678V28.4509H19.7295V26.7619ZM93.5216 21.2667L91.2379 27.9989H95.8053L93.5216 21.2667ZM106.985 19.6489L104.702 19.6491V25.5725H106.486C109.484 25.6438 110.316 23.8835 110.316 22.4086C110.316 21.0925 109.55 19.6603 106.985 19.6489ZM19.3013 24.6923H8.73919L8.85813 24.8826H19.2061L19.3013 24.6923ZM11.4749 18.198C11.4749 17.0324 10.0238 17.2227 9.92861 18.7214L9.83346 23.7883L11.4511 23.3363H11.4749V18.198ZM18.207 18.9355C18.207 17.7698 16.9224 16.8183 16.8273 18.2456L16.8511 23.2412L18.326 23.5742L18.207 18.9355ZM14.9956 18.0077C14.9956 16.8421 13.3066 16.6518 13.1876 18.1266L13.0687 23.1698H14.9956V18.0077ZM15.4 14.3205L18.0405 14.9152L18.8017 15.3434V15.3672L19.9436 16.4377L18.8255 17.5081V17.1989L18.0167 16.4614C17.9691 16.4614 15.3286 15.8429 15.3286 15.8429C15.3048 15.8429 11.8317 15.9381 11.8317 15.9381C11.8317 15.9381 11.8137 15.9432 11.7853 15.9525L11.702 15.9804C11.1922 16.1527 9.35448 16.7913 9.3339 16.7707V17.1751L8.31099 16.1998L9.45284 15.4385L11.9268 14.4156L15.4 14.3205ZM9.47663 15.272C9.66694 10.657 17.8502 10.4429 18.7542 15.1769L18.0643 14.7962L15.4 14.1777L11.9031 14.2729L9.47663 15.272ZM14.163 0.213867L14.3057 6.63677L14.3566 6.64581C14.9313 6.75809 15.4503 7.20838 15.5427 8.0403L15.8757 8.20682L15.5427 8.53986L15.5903 11.6324L14.7101 11.3945H13.4969L12.6167 11.5848V11.4421L12.7119 8.56365L12.355 8.27818L12.7357 8.11166C12.7357 7.23149 13.3066 6.73193 13.9251 6.66056H13.9013L14.163 0.213867ZM13.3066 9.42003C13.3066 9.06321 12.8784 9.13457 12.8546 9.56277L12.8308 11.0377L13.3066 10.8949V9.42003ZM15.3048 9.63413C15.3048 9.2773 14.9242 9.01563 14.9004 9.42003V10.8711L15.3286 10.9901L15.3048 9.63413ZM14.3295 9.34867C14.3295 8.99184 13.8299 8.94426 13.8061 9.37246L13.7824 10.8473H14.3295V9.34867Z" fill="#262626"/>
<path d="M5.93214 30.3302V30.0447H6.81231V29.7592H7.74007V30.0447H8.66782V29.7592H9.59557V30.0447H10.5233V29.7592H11.4511V30.0447H12.3788V29.7592H13.3304V30.0447H14.2581V29.7592H15.1859V30.0447H16.1136V29.7592H17.0176V30.0447H17.9691V29.7592H18.8731V30.0447H19.8246V29.7592H20.7524V30.0447H21.6564V30.3302H5.93214ZM5.93214 30.3302H5.88456V29.7592H5.91929L5.24227 28.5222H5.93214V26.3575L5.96044 26.3246C6.05917 26.2143 6.1046 26.2088 6.17002 26.1434C6.2176 26.0958 5.97971 26.0482 6.07487 25.8817C6.19381 25.6438 5.95592 25.5487 5.95592 25.4535C5.95592 25.3108 6.09866 25.3108 6.19381 25.1681C6.24139 25.0729 6.07487 24.8112 6.26518 24.7874L6.29145 24.798C6.41556 24.8651 6.29176 25.1009 6.33654 25.1681C6.4317 25.3108 6.57443 25.3108 6.57443 25.4535C6.57443 25.5487 6.33654 25.6676 6.45548 25.8817C6.52685 26.0244 6.31275 26.0958 6.36033 26.1434C6.4317 26.2147 6.47927 26.191 6.59822 26.3575H8.64403V24.3592L9.09601 24.359V24.0262L9.35769 17.1751L9.50042 16.8658L11.8555 16.0808L15.3048 15.9857C15.3048 16.0095 17.9454 16.6042 17.9454 16.6042C17.9454 16.628 18.6828 17.2703 18.6828 17.2703L18.8255 17.5319L19.0365 24.359L19.5154 24.3592V26.3575H21.0141C21.133 26.2147 21.1806 26.2147 21.252 26.1434C21.2995 26.0958 21.0617 26.0482 21.1568 25.8817C21.2757 25.6438 21.0379 25.5487 21.0379 25.4535C21.0379 25.3108 21.1806 25.3108 21.2757 25.1681C21.3233 25.0729 21.1568 24.8112 21.3471 24.7874L21.3734 24.798C21.4975 24.8651 21.3737 25.1009 21.4185 25.1681C21.5136 25.3108 21.6564 25.3108 21.6564 25.4535C21.6564 25.5487 21.4185 25.6676 21.5374 25.8817C21.6088 26.0244 21.3947 26.0958 21.4423 26.1434C21.5136 26.2147 21.5612 26.191 21.6802 26.3575V28.5222H22.37L21.6802 29.783L21.6799 29.8511L21.6802 30.0447L21.6564 41.0826H22.822L22.1321 42.3434V44.6509H26.1286C26.2476 44.4844 26.2951 44.4844 26.3665 44.413C26.4141 44.3654 26.2 44.3178 26.2713 44.1513C26.3903 43.9134 26.1524 43.8183 26.1524 43.7231C26.1524 43.5804 26.2951 43.5804 26.3903 43.4377C26.4379 43.3663 26.2713 43.0808 26.4617 43.057L26.4879 43.0676C26.612 43.1347 26.4882 43.3705 26.533 43.4377C26.6282 43.5804 26.7709 43.5804 26.7709 43.7231C26.7709 43.8183 26.533 43.9372 26.652 44.1513C26.7233 44.294 26.5092 44.3654 26.5568 44.413C26.6282 44.5081 26.6757 44.4844 26.7947 44.6509V44.6747H27.5321L26.8423 45.9355V48.7187H0.888965V45.9355L0.199097 44.6747H0.888965C1.00791 44.5081 1.05548 44.5081 1.12685 44.4368C1.17443 44.3892 0.96033 44.3416 1.0317 44.1751C1.15064 43.9372 0.912753 43.8421 0.912753 43.7469C0.912753 43.6042 1.05548 43.6042 1.15064 43.4614C1.19822 43.3663 1.0317 43.1046 1.222 43.0808L1.24828 43.0914C1.37239 43.1585 1.24859 43.3943 1.29337 43.4614C1.38852 43.6042 1.53126 43.6042 1.53126 43.7469C1.53126 43.8421 1.29337 43.961 1.41231 44.1751C1.48368 44.3178 1.26958 44.3892 1.31716 44.4368C1.38852 44.5081 1.4361 44.4844 1.55504 44.6509H5.48015V42.3434L4.7665 41.0826H5.93214V30.3302ZM19.6343 50.2174V50.4553C18.8969 51.4544 18.778 52.4535 18.778 53.3099C18.8017 53.5478 18.7066 53.6667 18.5163 53.6667C18.3022 53.6667 18.207 53.5478 18.207 53.3099C18.207 52.5487 18.4687 51.8112 19.1586 50.8835V50.7883H17.8978C17.7788 50.7883 17.6837 50.8597 17.6361 50.9548H17.4934L17.5647 50.2174H19.6343ZM9.61936 50.2174V53.4051L10.0238 53.4526V53.6429H8.62024V53.4526L9.02465 53.4051V50.7883H8.62024V50.5504C8.88192 50.5266 9.16738 50.4315 9.28632 50.2174H9.61936ZM12.1409 50.1698C12.807 50.1698 13.2114 50.5266 13.2114 50.931C13.2352 51.2879 12.9735 51.5495 12.6167 51.6685L12.6405 51.7399C13.0211 51.954 13.378 52.2394 13.378 52.6914C13.378 53.2148 12.926 53.6429 12.2123 53.6429C11.4749 53.6429 10.9991 53.2623 10.9991 52.8341C10.9991 52.4535 11.2846 52.1681 11.689 52.0491L11.6652 51.9302C11.3559 51.7399 11.0705 51.4544 11.0705 51.0738C11.0705 50.5742 11.4749 50.1698 12.1409 50.1698ZM15.6379 50.146C16.1612 50.146 16.5418 50.4077 16.5418 50.7407C16.518 50.9786 16.3991 51.0738 16.2564 51.0738C16.1374 51.0738 16.0185 50.9548 15.9947 50.8121C15.9947 50.6932 16.0423 50.598 16.0661 50.4553C15.9947 50.4077 15.9233 50.4077 15.8044 50.4077C15.2335 50.4077 15.0194 51.05 15.0194 52.0967H15.0669C15.1621 51.7161 15.4476 51.5258 15.7568 51.5258C16.3277 51.5258 16.6608 51.954 16.6608 52.4773C16.6608 53.1434 16.185 53.6429 15.4951 53.6429C14.6387 53.6429 14.3057 52.8341 14.3057 52.2156C14.3057 50.931 14.9004 50.146 15.6379 50.146ZM11.9268 52.0729C11.6414 52.2156 11.5224 52.5011 11.5224 52.7866C11.5224 53.1672 11.7128 53.4288 12.2123 53.4288C12.6167 53.4288 12.7594 53.1672 12.7594 52.8341C12.7594 52.4773 12.4026 52.2632 12.0934 52.1443C12.0458 52.1205 11.9744 52.0967 11.9268 52.0729ZM15.5189 51.8588C15.3048 51.8588 15.0907 52.0253 14.9956 52.3346C15.0194 52.8103 15.0907 53.4051 15.5665 53.4051C15.8995 53.4051 15.9947 53.072 15.9947 52.5962C15.9947 52.1443 15.852 51.8588 15.5189 51.8588ZM12.1647 50.3839C11.8317 50.3839 11.7128 50.6218 11.7128 50.931C11.7128 51.2641 12.022 51.4782 12.2837 51.5733C12.3313 51.5971 12.3788 51.6209 12.4264 51.6447C12.6167 51.502 12.7119 51.2403 12.7119 50.9786C12.7119 50.6456 12.5691 50.3839 12.1647 50.3839ZM49.4176 38.5372L49.4414 38.9654L48.3947 39.0844V45.5548C48.3947 47.7672 46.8009 48.8377 44.5172 48.8377C42.6617 48.8377 40.8775 47.791 40.8775 45.6976V39.0844L39.807 38.9654L39.8308 38.5372L41.496 38.5848L43.2802 38.5372V38.9654L42.2572 39.0844V45.65C42.2572 47.2676 43.3039 48.0288 44.9691 48.0288C46.6343 48.0288 47.7048 47.2438 47.7048 45.5073V39.0844L46.6581 38.9654V38.5372L48.0854 38.5848L49.4176 38.5372ZM99.2308 38.3945C100.301 38.3945 101.134 38.9178 101.443 39.2747L101.681 38.5134H102.181V41.2253H101.633C101.419 39.6553 100.42 38.9178 99.2784 38.9178C97.9938 38.9178 97.3991 39.6077 97.3991 40.6544C97.3991 41.7249 98.6837 42.1531 99.9207 42.8192C101.705 43.7469 102.585 44.6509 102.585 45.8641C102.585 47.7434 101.134 48.7901 99.4925 48.7901C98.3506 48.7901 97.5418 48.3381 97.0185 47.8148L96.7806 48.6473H96.3524V45.7927L96.9233 45.7689C97.1612 47.4341 97.8511 48.2429 99.4687 48.2429C100.658 48.2429 101.419 47.5055 101.419 46.3874C101.419 45.1504 100.063 44.6033 99.0643 44.0799C96.9471 43.0808 96.3286 42.1055 96.3286 40.9636C96.3286 39.3698 97.8511 38.3945 99.2308 38.3945ZM90.0247 38.561C92.5224 38.561 93.8546 39.6077 93.8546 41.035C93.8546 42.4623 92.8079 43.0808 91.3806 43.3663L91.4282 43.6042C93.022 43.6518 93.7357 44.6033 93.7357 45.7689V46.435C93.7357 47.672 93.9973 48.1478 94.4255 48.1478C94.6634 48.1478 94.8299 47.9813 94.9727 47.6482L95.2343 47.8385C94.9251 48.4095 94.5207 48.7663 93.807 48.7663C92.8317 48.7663 92.3797 47.8623 92.3797 46.4588V45.7689C92.3797 44.9125 91.9039 43.8421 90.8572 43.8421H88.6925V48.1478L89.7392 48.3143V48.6949L88.0502 48.6711L86.2661 48.6949V48.3143L87.3365 48.1478V39.0844L86.2661 38.9654L86.2898 38.561H90.0247ZM127.016 38.5134V38.9178L126.112 39.1081L123.138 44.4844V48.1478L124.185 48.3381V48.7187L122.472 48.6949L120.736 48.7187V48.3381L121.782 48.1716V44.4844L118.785 39.1081L117.881 38.894V38.5134L119.522 38.5372L121.259 38.5134V38.894L120.355 39.0606V39.2033L122.781 43.7707L125.16 39.2747V39.0844L124.185 38.9178V38.5134L125.826 38.5372L127.016 38.5134ZM107.89 38.561V38.9654L106.867 39.0844V48.124L107.866 48.3143V48.6949L106.201 48.6711L104.417 48.6949V48.3143L105.487 48.1478V39.0844L104.417 38.9654L104.441 38.561L106.201 38.6086L107.89 38.561ZM65.4987 38.561V38.9654L64.4758 39.0844V48.124L65.4749 48.3143V48.6949L63.8097 48.6711L62.0255 48.6949V48.3143L63.096 48.1478V39.0844L62.0255 38.9654L62.0493 38.561L63.8097 38.6086L65.4987 38.561ZM60.6696 38.5372V38.9178L59.6229 39.0844C59.6229 39.0844 59.5078 40.6724 59.504 42.5581L59.5039 48.6711H58.5762L52.4387 40.7496V44.3178C52.4387 46.7681 52.5577 48.124 52.5577 48.124L53.652 48.3143V48.6949L52.1771 48.6711L50.5357 48.6949V48.3143L51.6299 48.1478C51.6299 48.1478 51.7251 46.887 51.7251 44.294V39.8218C51.7251 39.1302 51.2451 39.0479 50.7405 38.973L50.6585 38.9609C50.6175 38.9547 50.5764 38.9484 50.5357 38.9416L50.5594 38.5372L52.6053 38.5848L58.8141 46.7205V42.6051C58.8141 40.702 58.7189 39.1081 58.7189 39.1081L57.4819 38.9178V38.5372L59.0757 38.561L60.6696 38.5372ZM84.0061 38.5372L84.0537 41.2015H83.5066L83.4114 40.8685C83.1736 39.9645 82.5788 39.1319 81.2229 39.1319H78.9868V43.2949H79.6291C80.652 43.3187 81.4132 43.0333 81.4132 42.2244V41.939H81.8652V45.2218H81.4132V44.9363C81.4132 44.1275 80.6757 43.8421 79.6528 43.8421H79.0106V48.1002H81.6987C82.9832 48.1002 83.8396 47.339 84.1013 46.4112L84.1965 46.0544L84.7436 46.0782L84.4581 48.6711H78.3683L76.5841 48.6949V48.3143L77.6546 48.1478V39.0844L76.5841 38.9654L76.6079 38.561H84.0061V38.5372ZM117.215 38.5372L117.381 41.1777H116.811L116.668 40.7496C116.359 39.8218 115.907 39.1081 114.693 39.1319H113.813V48.1478L114.884 48.2667L114.86 48.6711L113.171 48.6236L111.434 48.6711V48.2667L112.433 48.1478V39.1319H111.458C110.269 39.1081 109.793 39.8218 109.484 40.7496L109.341 41.1777H108.794L108.96 38.5372H117.215ZM75.918 38.5134V38.894L74.9665 39.0844L71.5172 48.6473H70.7797L67.3066 39.0844L66.3313 38.894V38.5134L68.044 38.5372L69.733 38.5134V38.894L68.6863 39.0606L71.4696 46.8632L74.1577 39.0606L73.111 38.894V38.5134L74.6335 38.5372L75.918 38.5134ZM25.9145 45.5548H1.6502L1.91187 45.8403H25.6528L25.9145 45.5548ZM89.9295 39.1081H88.6925V43.2711H89.6202C91.8088 43.3187 92.4273 42.0817 92.4273 41.0588C92.4273 40.1311 91.8564 39.1081 89.9295 39.1081ZM21.4423 42.0579H6.09866L6.26518 42.3434H21.2757L21.4423 42.0579ZM13.9013 32.5425C12.1885 32.5425 10.8088 33.8509 10.8088 35.4923C10.8088 37.1337 12.1885 38.4659 13.9013 38.4421C15.6141 38.4421 16.9938 37.1337 16.9938 35.4923C16.9938 33.8747 15.6141 32.5425 13.9013 32.5425ZM13.8061 33.5416L13.8537 35.302L16.0423 36.4676L13.4731 35.4923L13.8061 33.5416ZM62.4537 18.6262C66.4978 18.6262 69.0432 21.8377 69.0432 26.0482C69.0432 30.2588 66.474 33.4465 62.4537 33.4465C58.4097 33.4465 55.8405 30.2588 55.8405 26.0482C55.8405 21.8377 58.4097 18.6262 62.4537 18.6262ZM107.01 18.8165C110.411 18.8165 112.243 20.2914 112.243 22.361C112.243 24.383 110.816 25.287 108.865 25.6676L108.937 26.0007C111.101 26.072 112.1 27.428 112.1 29.0932V30.0447C112.1 31.8288 112.481 32.4949 113.028 32.4949C113.361 32.4949 113.575 32.257 113.766 31.7813L114.146 32.0429C113.718 32.8518 113.171 33.3513 112.196 33.3513C110.887 33.3513 110.245 32.0667 110.245 30.0447V29.0456C110.245 27.8086 109.603 26.2861 108.152 26.2861H104.655V32.4236L106.129 32.7566V33.3037L103.822 33.2562L101.396 33.3037V32.7566L102.847 32.5425V19.6015L101.372 19.4112L101.396 18.8165H107.01ZM120.403 18.8403C125.018 18.8403 127.682 22.1231 127.682 25.8817C127.682 30.7108 124.518 33.2799 120.403 33.2799H117.5L115.098 33.3275V32.7804L116.525 32.5663V19.6253L115.05 19.435L115.098 18.8403H120.403ZM94.4731 18.8165L99.2784 32.4949L100.587 32.7566V33.3037L98.2555 33.2562L95.9004 33.3037V32.7566L97.3515 32.5425L96.1383 28.9742H90.881C90.1436 31.139 89.7392 32.5425 89.7392 32.5425L91.2617 32.7566V33.3037L89.1445 33.2562L87.2652 33.3037V32.7566L88.4784 32.5663C88.4784 32.5663 89.3586 30.4729 90.1912 28.0227L93.3788 18.8165H94.4731ZM54.3418 18.5548V19.1495L52.9383 19.3399V32.4711L54.3656 32.7328V33.2799L52.0343 33.2324L49.5841 33.2799V32.7328L51.0352 32.4949V26.4526H43.1612V32.4711L44.5885 32.7566V33.3037L42.2572 33.2562L39.7832 33.3037V32.7566L41.2581 32.5187V19.3399L39.7594 19.1495L39.7832 18.5548L42.2097 18.6024L44.5647 18.5548V19.1495L43.1374 19.3399V25.5249H51.0114V19.3399L49.5603 19.1495L49.5841 18.5548L51.9868 18.6024L54.3418 18.5548ZM69.2097 18.8165L71.5647 18.8641L74.1339 18.8403V19.5064L72.5876 19.7205L72.5639 19.9108L75.252 30.1161L78.9392 18.8403H80.1048L84.0299 30.1874L86.3612 19.887V19.7205L84.5295 19.4588V18.8641L86.7894 18.9117L88.8114 18.8641V19.4826L87.4793 19.7681L84.1013 33.2799H83.2687L79.1295 21.3619L75.1092 33.2799H74.2291V33.2562L70.518 19.7443L69.1859 19.4112L69.2097 18.8165ZM62.4537 19.5302C59.2185 19.5302 58.0766 22.361 58.0766 26.0482C58.0766 29.7355 59.2185 32.5663 62.4537 32.5663C65.689 32.5663 66.8308 29.7592 66.8308 26.0482C66.8308 22.361 65.689 19.5302 62.4537 19.5302ZM120.046 19.6728L118.404 19.6967V32.4473H120.236C124.542 32.5187 125.612 28.8553 125.612 25.9293C125.612 23.1222 124.161 19.6491 120.046 19.6728ZM7.24051 26.7619H6.97883V28.4509H7.24051V26.7619ZM8.07311 26.7619H7.81143V28.4509H8.07311V26.7619ZM8.90571 26.7619H8.64403V28.4509H8.90571V26.7619ZM9.7383 26.7619H9.47663V28.4509H9.7383V26.7619ZM10.5709 26.7619H10.3092V28.4509H10.5709V26.7619ZM11.4035 26.7619H11.1418V28.4509H11.4035V26.7619ZM12.2361 26.7619H11.9744V28.4509H12.2361V26.7619ZM13.0687 26.7619H12.807V28.4509H13.0687V26.7619ZM14.7339 26.7619H14.4722V28.4509H14.7339V26.7619ZM15.5665 26.7619H15.3048V28.4509H15.5665V26.7619ZM16.3991 26.7619H16.1374V28.4509H16.3991V26.7619ZM17.2317 26.7619H16.97V28.4509H17.2317V26.7619ZM18.0643 26.7619H17.8026V28.4509H18.0643V26.7619ZM18.8969 26.7619H18.6352V28.4509H18.8969V26.7619ZM20.5621 26.7619H20.3004V28.4509H20.5621V26.7619ZM19.7295 26.7619H19.4678V28.4509H19.7295V26.7619ZM93.5216 21.2667L91.2379 27.9989H95.8053L93.5216 21.2667ZM106.985 19.6489L104.702 19.6491V25.5725H106.486C109.484 25.6438 110.316 23.8835 110.316 22.4086C110.316 21.0925 109.55 19.6603 106.985 19.6489ZM19.3013 24.6923H8.73919L8.85813 24.8826H19.2061L19.3013 24.6923ZM11.4749 18.198C11.4749 17.0324 10.0238 17.2227 9.92861 18.7214L9.83346 23.7883L11.4511 23.3363H11.4749V18.198ZM18.207 18.9355C18.207 17.7698 16.9224 16.8183 16.8273 18.2456L16.8511 23.2412L18.326 23.5742L18.207 18.9355ZM14.9956 18.0077C14.9956 16.8421 13.3066 16.6518 13.1876 18.1266L13.0687 23.1698H14.9956V18.0077ZM15.4 14.3205L18.0405 14.9152L18.8017 15.3434V15.3672L19.9436 16.4377L18.8255 17.5081V17.1989L18.0167 16.4614C17.9691 16.4614 15.3286 15.8429 15.3286 15.8429C15.3048 15.8429 11.8317 15.9381 11.8317 15.9381C11.8317 15.9381 11.8137 15.9432 11.7853 15.9525L11.702 15.9804C11.1922 16.1527 9.35448 16.7913 9.3339 16.7707V17.1751L8.31099 16.1998L9.45284 15.4385L11.9268 14.4156L15.4 14.3205ZM9.47663 15.272C9.66694 10.657 17.8502 10.4429 18.7542 15.1769L18.0643 14.7962L15.4 14.1777L11.9031 14.2729L9.47663 15.272ZM14.163 0.213867L14.3057 6.63677L14.3566 6.64581C14.9313 6.75809 15.4503 7.20838 15.5427 8.0403L15.8757 8.20682L15.5427 8.53986L15.5903 11.6324L14.7101 11.3945H13.4969L12.6167 11.5848V11.4421L12.7119 8.56365L12.355 8.27818L12.7357 8.11166C12.7357 7.23149 13.3066 6.73193 13.9251 6.66056H13.9013L14.163 0.213867ZM13.3066 9.42003C13.3066 9.06321 12.8784 9.13457 12.8546 9.56277L12.8308 11.0377L13.3066 10.8949V9.42003ZM15.3048 9.63413C15.3048 9.2773 14.9242 9.01563 14.9004 9.42003V10.8711L15.3286 10.9901L15.3048 9.63413ZM14.3295 9.34867C14.3295 8.99184 13.8299 8.94426 13.8061 9.37246L13.7824 10.8473H14.3295V9.34867Z" stroke="#262626" stroke-width="0.232818"/>
</g>
</g>
</g>
<defs>
<clipPath id="clip0_399_222">
<rect width="128" height="54" fill="white"/>
</clipPath>
<clipPath id="clip1_399_222">
<rect width="128" height="54" fill="white"/>
</clipPath>
<clipPath id="clip2_399_222">
<rect width="127.982" height="54" fill="white" transform="translate(0.00878906)"/>
</clipPath>
</defs>
</svg>
