<svg width="128" height="47" viewBox="0 0 128 47" fill="none" xmlns="http://www.w3.org/2000/svg">
<g clip-path="url(#clip0_399_216)">
<path d="M34.9187 30.0117C35.3097 30.0086 35.6957 29.9235 36.0517 29.7619C36.4077 29.6002 36.7258 29.3655 36.9853 29.0731C37.2448 28.7807 37.4401 28.437 37.5583 28.0643C37.6766 27.6916 37.7152 27.2982 37.6717 26.9097V13.1445C37.7152 12.756 37.6766 12.3626 37.5583 11.9899C37.4401 11.6172 37.2448 11.2735 36.9853 10.9811C36.7258 10.6887 36.4077 10.454 36.0517 10.2923C35.6957 10.1306 35.3097 10.0455 34.9187 10.0425C34.5263 10.0461 34.1389 10.1312 33.7811 10.2925C33.4233 10.4538 33.103 10.6877 32.8405 10.9794C32.578 11.2711 32.379 11.6142 32.2561 11.987C32.1333 12.3597 32.0893 12.7539 32.1269 13.1445V26.9097C32.0893 27.3003 32.1333 27.6945 32.2561 28.0672C32.379 28.4399 32.578 28.7831 32.8405 29.0748C33.103 29.3665 33.4233 29.6004 33.7811 29.7617C34.1389 29.923 34.5263 30.0081 34.9187 30.0117ZM6.07012 42.6523H6.4191C7.31092 42.6523 7.50479 42.6523 7.50479 43.3115V43.8156C7.51224 44.1094 7.45656 44.4014 7.34151 44.672C7.22646 44.9425 7.05472 45.1851 6.83788 45.3836C6.62104 45.5821 6.36415 45.7317 6.08454 45.8224C5.80493 45.9131 5.50912 45.9428 5.21707 45.9094C4.74489 45.9066 4.2824 45.7752 3.87932 45.5292C3.47624 45.2833 3.14781 44.9321 2.92934 44.5135C2.58421 43.6112 2.42591 42.6482 2.46404 41.6829C2.46404 39.2789 3.27832 37.4177 5.1783 37.4177C7.07827 37.4177 7.85377 38.9687 8.2803 40.5585H8.78437V36.9136H8.16397L7.77622 37.7667C7.12349 37.1645 6.25967 36.8441 5.37217 36.8748C4.73539 36.8888 4.10812 37.0324 3.52861 37.2967C2.94909 37.561 2.42945 37.9405 2.00136 38.4121C1.57327 38.8837 1.2457 39.4376 1.03859 40.0399C0.831485 40.6422 0.74919 41.2804 0.79672 41.9156C0.765457 43.0965 1.18086 44.2458 1.95997 45.1339C2.35212 45.5688 2.83035 45.9174 3.36434 46.1577C3.89833 46.398 4.47643 46.5247 5.06197 46.5298C5.57494 46.5413 6.08413 46.4395 6.55328 46.2318C7.02242 46.024 7.43999 45.7154 7.77622 45.3278L8.31907 46.5298H8.74559V43.1564C8.74559 42.8462 8.74559 42.6911 9.28845 42.6911H10.1415V42.1095H6.07012V42.6523ZM12.7006 45.2502V36.8748H10.2966V37.4177H10.917C11.3435 37.4177 11.5374 37.4177 11.5374 37.7667V45.1339C11.5374 45.5604 11.3435 45.7155 10.8394 45.7155H10.4517V46.5298H13.7476V46.0257H13.3986C12.8945 45.8319 12.7006 45.6768 12.7006 45.2502ZM3.47219 29.9341C3.86282 29.936 4.24949 29.8558 4.6072 29.6989C4.9649 29.5419 5.28569 29.3116 5.54882 29.0229C5.81195 28.7342 6.01157 28.3935 6.13476 28.0228C6.25795 27.6521 6.30198 27.2597 6.264 26.8709V13.067C6.30198 12.6782 6.25795 12.2858 6.13476 11.9151C6.01157 11.5444 5.81195 11.2037 5.54882 10.915C5.28569 10.6262 4.9649 10.396 4.6072 10.239C4.24949 10.0821 3.86282 10.0019 3.47219 10.0038C3.08484 10.0073 2.70246 10.0914 2.34938 10.2508C1.99629 10.4101 1.68023 10.6412 1.4213 10.9293C1.16236 11.2174 0.966217 11.5562 0.845338 11.9243C0.72446 12.2923 0.681493 12.6814 0.71917 13.067V26.8709C0.681493 27.2564 0.72446 27.6456 0.845338 28.0136C0.966217 28.3816 1.16236 28.7205 1.4213 29.0086C1.68023 29.2967 1.99629 29.5278 2.34938 29.6871C2.70246 29.8464 3.08484 29.9306 3.47219 29.9341ZM17.1985 40.1707C16.8007 40.1791 16.409 40.2702 16.0482 40.4381C15.6875 40.6061 15.3656 40.8472 15.1031 41.1462C14.8405 41.4452 14.643 41.7956 14.5232 42.175C14.4033 42.5545 14.3636 42.9547 14.4067 43.3503C14.3604 43.7419 14.3974 44.1389 14.5156 44.5151C14.6337 44.8913 14.8302 45.2383 15.0922 45.5331C15.3541 45.8278 15.6755 46.0638 16.0352 46.2254C16.3949 46.387 16.7848 46.4705 17.1792 46.4705C17.5735 46.4705 17.9634 46.387 18.3231 46.2254C18.6828 46.0638 19.0042 45.8278 19.2662 45.5331C19.5281 45.2383 19.7246 44.8913 19.8427 44.5151C19.9609 44.1389 19.998 43.7419 19.9516 43.3503C20.0005 42.9568 19.9663 42.5574 19.851 42.178C19.7358 41.7986 19.5421 41.4477 19.2826 41.1479C19.023 40.8481 18.7034 40.6062 18.3444 40.4379C17.9854 40.2696 17.595 40.1785 17.1985 40.1707ZM17.1985 46.0257C16.3843 46.0257 15.7251 45.4053 15.7251 43.3503C15.7251 41.2952 16.3843 40.7136 17.1985 40.7136C18.0128 40.7136 18.672 41.334 18.672 43.3503C18.672 45.3666 18.0128 46.0257 17.1985 46.0257ZM24.3331 40.1707C23.9698 40.17 23.6135 40.2714 23.305 40.4633C22.9965 40.6553 22.7481 40.9301 22.5883 41.2564V36.8748H20.4169V37.4177H20.8046C21.2311 37.4177 21.425 37.4177 21.425 37.7667V44.2033C21.4225 44.946 21.3445 45.6865 21.1924 46.4135H21.6577L22.2781 45.3666C22.4905 45.6958 22.7838 45.965 23.1301 46.1483C23.4764 46.3316 23.8639 46.4229 24.2556 46.4135C24.6579 46.4148 25.0561 46.3326 25.425 46.1721C25.7939 46.0116 26.1255 45.7764 26.3988 45.4812C26.6721 45.186 26.8812 44.8373 27.0129 44.4572C27.1445 44.077 27.1959 43.6737 27.1637 43.2727C27.2017 42.8788 27.1566 42.4814 27.0315 42.106C26.9063 41.7306 26.7038 41.3856 26.4371 41.0933C26.1704 40.801 25.8453 40.5679 25.4829 40.409C25.1205 40.25 24.7288 40.1689 24.3331 40.1707ZM24.1005 45.9482C23.1699 45.9482 22.5495 45.1727 22.5495 43.4278C22.5495 41.6829 23.1699 40.8299 24.1005 40.8299C25.0311 40.8299 25.6515 41.6054 25.6515 43.4278C25.6515 45.2502 25.0311 45.9482 24.1005 45.9482ZM115.803 0.426332C115.495 0.224319 115.148 0.0873811 114.784 0.0238869C114.421 -0.0396073 114.048 -0.0283248 113.689 0.057045C113.33 0.142415 112.993 0.300079 112.697 0.520405C112.401 0.74073 112.153 1.01909 111.968 1.33848C111.783 1.65786 111.665 2.01157 111.622 2.37798C111.579 2.74439 111.61 3.11582 111.715 3.46957C111.82 3.82331 111.996 4.15195 112.232 4.43539C112.469 4.71884 112.76 4.95114 113.089 5.11811C115.708 6.61855 117.883 8.7838 119.397 11.3949C120.91 14.006 121.707 16.9704 121.707 19.9883C121.707 23.0062 120.91 25.9706 119.397 28.5817C117.883 31.1928 115.708 33.3581 113.089 34.8585C112.508 35.2385 112.095 35.8266 111.935 36.5019C111.774 37.1771 111.878 37.8882 112.226 38.489C112.573 39.0898 113.138 39.5346 113.803 39.732C114.469 39.9294 115.184 39.8644 115.803 39.5503C119.243 37.5721 122.1 34.7222 124.086 31.2878C126.073 27.8533 127.119 23.9559 127.119 19.9883C127.119 16.0207 126.073 12.1233 124.086 8.68889C122.1 5.25448 119.243 2.40452 115.803 0.426332ZM36.8962 45.2502V36.8748H34.4922V37.4177H34.9187C35.3452 37.4177 35.5391 37.4177 35.5391 37.7667V45.1339C35.5391 45.5604 35.5391 45.7155 34.8412 45.7155H34.6473V46.5298H37.9432V46.0257H37.5554C37.0513 45.8319 36.8962 45.6768 36.8962 45.2502ZM33.484 45.6768C33.2126 45.6768 33.0187 45.3278 33.0187 45.0951V42.1482C33.0187 40.7911 32.282 40.1707 30.6535 40.1707C29.0249 40.1707 28.1331 40.9462 28.1331 41.7605C28.1224 41.8604 28.1323 41.9614 28.162 42.0573C28.1918 42.1532 28.2409 42.242 28.3063 42.3183C28.3716 42.3946 28.4519 42.4566 28.5422 42.5008C28.6324 42.5449 28.7307 42.57 28.831 42.5748C28.9221 42.5865 29.0147 42.5778 29.1021 42.5494C29.1894 42.521 29.2694 42.4735 29.3361 42.4105C29.4029 42.3474 29.4548 42.2703 29.4882 42.1847C29.5216 42.0991 29.5355 42.0072 29.529 41.9156C29.529 41.6442 29.2576 41.334 29.2576 41.2176C29.2576 41.1013 29.5678 40.7523 30.4596 40.7523C31.3514 40.7523 31.8167 41.1401 31.8167 41.9544V42.6523C29.3351 43.0013 27.9392 43.7768 27.9392 45.0176C27.9392 46.2584 28.7923 46.5298 29.7229 46.5298C30.1643 46.5408 30.6026 46.4524 31.0053 46.2712C31.408 46.0899 31.7648 45.8205 32.0494 45.4829C32.0788 45.7641 32.2169 46.0228 32.4341 46.2038C32.6514 46.3849 32.9307 46.474 33.2126 46.4523C33.4488 46.464 33.6829 46.4035 33.8838 46.2788C34.0847 46.1541 34.2428 45.9711 34.3371 45.7543V45.5217C34.3371 45.5217 33.833 45.6768 33.484 45.6768ZM31.8555 44.2033C31.8556 44.4256 31.8112 44.6456 31.725 44.8504C31.6388 45.0553 31.5125 45.2409 31.3535 45.3962C31.1946 45.5515 31.0062 45.6735 30.7994 45.755C30.5926 45.8365 30.3716 45.8758 30.1494 45.8706C30.0138 45.8812 29.8775 45.8642 29.7487 45.8207C29.6199 45.7772 29.5012 45.7081 29.3998 45.6175C29.2983 45.527 29.2163 45.4168 29.1585 45.2937C29.1008 45.1706 29.0685 45.0371 29.0637 44.9013C29.0637 43.9319 29.6453 43.4666 31.8555 43.1564V44.2033ZM25.2637 10.0425C24.6879 10.0449 24.1298 10.2414 23.6795 10.6003C23.2291 10.9591 22.913 11.4593 22.7821 12.0201L19.1761 21.9465L15.5312 12.0201C15.4004 11.4593 15.0842 10.9591 14.6339 10.6003C14.1836 10.2414 13.6254 10.0449 13.0496 10.0425C12.679 10.0156 12.3069 10.0661 11.9569 10.1908C11.6069 10.3156 11.2867 10.512 11.0168 10.7673C10.7468 11.0226 10.533 11.3314 10.389 11.674C10.245 12.0165 10.1739 12.3853 10.1803 12.7568C10.1842 13.3178 10.303 13.872 10.5292 14.3853L16.1904 27.6852C16.8496 29.1586 17.3149 30.0117 19.1761 30.0117C21.0373 30.0117 21.5413 29.1586 22.2005 27.6852L27.7841 14.3853C28.0104 13.872 28.1291 13.3178 28.1331 12.7568C28.1395 12.3853 28.0684 12.0165 27.9243 11.674C27.7803 11.3314 27.5665 11.0226 27.2966 10.7673C27.0267 10.512 26.7065 10.3156 26.3565 10.1908C26.0065 10.0661 25.6343 10.0156 25.2637 10.0425Z" fill="#262626"/>
<path d="M59.1531 27.6077C58.9205 28.073 58.649 28.3444 58.3001 28.3444C57.9511 28.3444 56.9429 26.6383 56.0899 23.2649C55.8802 22.3235 55.3272 21.494 54.5389 20.9384C53.7213 20.4426 52.8318 20.0764 51.9022 19.8527C52.8849 19.797 53.8593 19.641 54.8103 19.3874C55.642 19.1514 56.4017 18.7116 57.0205 18.1078C57.4171 17.6984 57.725 17.2117 57.9252 16.678C58.1253 16.1443 58.2133 15.575 58.1837 15.0058C58.1887 14.3603 58.0484 13.7219 57.7732 13.138C57.498 12.554 57.095 12.0395 56.594 11.6324C55.2529 10.6762 53.6236 10.2107 51.9797 10.314H41.7819V11.3222H43.7207C44.061 11.2848 44.4038 11.367 44.69 11.5548C44.8039 11.6467 44.8922 11.7662 44.9465 11.902C45.0009 12.0378 45.0194 12.1853 45.0002 12.3303V27.9567C45.0002 28.5771 44.5737 28.8873 43.7207 28.8873H41.7819V29.9342H50.9716V28.8873H48.8777C48.1798 28.8873 47.8308 28.5771 47.8308 27.9567V20.2017H49.4206C50.0956 20.1188 50.7805 20.2148 51.4067 20.4803C52.0328 20.7457 52.5781 21.1711 52.9879 21.7139C53.6543 23.0734 53.9487 24.5852 53.8409 26.0955C53.7678 27.1477 54.07 28.1919 54.694 29.0424C54.9748 29.3845 55.3309 29.657 55.7345 29.8386C56.1381 30.0202 56.5782 30.106 57.0205 30.0893C59.2694 30.0893 60.3939 28.5771 60.3939 25.5138H59.4633C59.4871 26.2248 59.382 26.9342 59.1531 27.6077ZM47.8308 19.3874V12.1365C47.8256 12.0161 47.8448 11.896 47.8872 11.7833C47.9297 11.6705 47.9946 11.5676 48.0779 11.4806C48.1613 11.3937 48.2614 11.3245 48.3722 11.2773C48.483 11.23 48.6022 11.2058 48.7226 11.2059H50.1185C51.3626 11.1036 52.613 11.3031 53.7634 11.7875C54.2669 12.1994 54.6586 12.7314 54.9026 13.3345C55.1465 13.9376 55.2348 14.5923 55.1593 15.2385C55.2008 15.803 55.1181 16.3698 54.9171 16.899C54.7162 17.4282 54.4018 17.907 53.996 18.3017C52.8495 19.052 51.4833 19.3935 50.1185 19.2711L47.8308 19.3874ZM106.769 28.8873C106.403 28.9324 106.032 28.8487 105.721 28.6507C105.41 28.4526 105.177 28.1524 105.063 27.8016L97.9281 9.73242H96.9587L90.3282 26.4832C89.6691 28.1118 88.7384 28.8873 87.4976 28.8873V29.9342H94.6322V28.8873H93.9731C93.3628 28.9136 92.7576 28.7656 92.2282 28.4607C92.0411 28.3535 91.8831 28.2019 91.7682 28.0194C91.6533 27.8369 91.5849 27.6289 91.569 27.4138C91.5313 27.1437 91.5313 26.8697 91.569 26.5995C91.6338 26.3202 91.7247 26.0476 91.8405 25.7853L92.6547 23.2649H100.41L102.038 27.4914C102.073 27.6445 102.073 27.8035 102.038 27.9567C102.038 28.4995 101.34 28.7709 99.9444 28.7709H99.324V29.8179H107.079V28.8873H106.769ZM93.0812 22.3343L96.6098 13.5711L100.061 22.3343H93.0812ZM74.0039 25.7465L68.1101 10.2365H61.5184V11.2446H63.4959C64.2714 11.2446 64.6592 11.5548 64.6592 12.1752V25.7465C64.7496 26.6203 64.4996 27.4952 63.9612 28.1893C63.2619 28.7172 62.3911 28.966 61.5184 28.8873V29.9342H69.002V28.8873C68.1167 28.9721 67.2317 28.7232 66.5204 28.1893C65.9985 27.4308 65.7901 26.5 65.9387 25.5914V11.2446L72.9958 29.9342H73.6937L80.2467 11.1671V27.9567C80.245 28.0879 80.2166 28.2175 80.1633 28.3375C80.1099 28.4575 80.0328 28.5654 79.9365 28.6546C79.6827 28.8177 79.3849 28.8989 79.0835 28.8873H77.1447V29.9342H86.1793V28.8873H84.4344C83.5038 28.8873 83.0773 28.5771 83.0773 27.9567V12.4467C83.0773 11.7099 83.4263 11.3222 84.163 11.3222H86.1793V10.1589H79.4712L74.0039 25.7465Z" fill="#262626"/>
</g>
<defs>
<clipPath id="clip0_399_216">
<rect width="127.957" height="46.53" fill="white" transform="translate(0.0212402)"/>
</clipPath>
</defs>
</svg>
