<svg width="128" height="15" viewBox="0 0 128 15" fill="none" xmlns="http://www.w3.org/2000/svg">
<g clip-path="url(#clip0_399_229)">
<g clip-path="url(#clip1_399_229)">
<g clip-path="url(#clip2_399_229)">
<path opacity="0.5" d="M91.767 13.4975C91.767 13.5871 91.7233 13.6318 91.6342 13.6318H89.7863C89.6535 13.6318 89.6535 13.4975 89.6535 13.4975V0.960253C89.6535 0.825878 89.7863 0.825878 89.7863 0.825878H91.6342C91.7679 0.825878 91.767 0.960253 91.767 0.960253V13.4975ZM103.507 11.6296C103.595 11.6296 103.64 11.6745 103.64 11.764V13.3631C103.64 13.4975 103.507 13.4975 103.507 13.4975H97.431C97.2982 13.4975 97.2982 13.3631 97.2982 13.3631V0.960253C97.2982 0.825878 97.431 0.825878 97.431 0.825878H99.2789C99.4117 0.825878 99.4117 0.960253 99.4117 0.960253V11.6296H103.507ZM114.595 11.6296C114.683 11.6296 114.728 11.6745 114.728 11.764V13.3631C114.728 13.4975 114.595 13.4975 114.595 13.4975H108.386C108.253 13.4975 108.253 13.3631 108.253 13.3631V0.960253C108.253 0.825878 108.386 0.825878 108.386 0.825878H110.234C110.367 0.825878 110.367 0.960253 110.367 0.960253V11.6296H114.595ZM118.823 12.0328L119.74 10.4337C119.829 10.3441 119.917 10.3441 120.005 10.4337C120.405 10.8369 121.854 11.6296 123.569 11.6296C124.884 11.6296 125.815 11.0921 125.815 10.0306C125.815 9.22433 125.284 8.70027 123.169 8.29711C120.272 7.75964 118.942 6.5637 118.809 4.42713C118.676 2.1562 120.524 0.557129 123.422 0.557129C125.536 0.557129 126.986 1.48431 127.384 1.75307C127.517 1.75307 127.517 1.88745 127.384 2.02182L126.6 3.75526C126.6 3.88963 126.467 3.88963 126.334 3.75526C125.935 3.48651 124.884 2.69369 123.302 2.69369C121.987 2.69369 121.056 3.36557 121.056 4.15838C121.056 5.08558 121.72 5.4887 123.689 5.89182C126.467 6.5637 127.916 7.49089 127.916 9.76184C127.916 12.0328 126.201 13.6318 123.302 13.6318C120.923 13.6318 119.208 12.4359 118.809 12.0328C118.809 12.1672 118.809 12.3015 118.809 12.0328H118.823ZM82.7936 6.5637C83.5909 6.0262 84.11 5.09901 84.11 4.15838C84.11 2.02182 82.5275 0.825878 80.0149 0.825878H76.0529C75.9201 0.825878 75.9201 0.960253 75.9201 1.09463V13.4975C75.9201 13.6318 76.053 13.6318 76.1859 13.6318H80.6796C83.3251 13.6318 85.0401 12.0328 85.0401 9.76184C85.0401 8.20308 84.0563 7.06089 82.7936 6.5637ZM80.4137 11.6296H78.0339V2.96245H79.8819C81.1981 2.96245 81.9958 3.49995 81.9958 4.42713C81.9958 5.35433 81.464 6.0262 80.1478 6.0262H79.483L79.8819 7.62526H80.7992C82.1154 7.62526 82.9133 8.43155 82.9133 9.49304C82.9133 10.9443 81.8629 11.6296 80.4004 11.6296H80.4137Z" fill="#262626"/>
<path d="M23.287 0.691406H21.439C21.439 0.691406 21.3061 0.691406 21.3061 0.825784V6.0261H15.8951V0.825784C15.8951 0.825784 15.8951 0.691406 15.7621 0.691406H13.9141C13.9141 0.691406 13.7812 0.691406 13.7812 0.825784V13.363C13.7812 13.363 13.7812 13.4974 13.9141 13.4974H15.7621C15.7621 13.4974 15.8951 13.4974 15.8951 13.363V8.02829H21.3061V13.363C21.3061 13.363 21.3061 13.4974 21.439 13.4974H23.287C23.287 13.4974 23.4199 13.4974 23.4199 13.363V0.825784C23.4199 0.825784 23.4199 0.691406 23.287 0.691406Z" fill="#262626"/>
<path d="M5.459 0.691406H0.978648C0.845703 0.691406 0.845703 0.82578 0.845703 0.960154V13.363C0.845703 13.4973 0.978648 13.4973 1.1116 13.4973H2.95958C3.09252 13.4973 3.22548 13.363 3.22548 13.363V2.69359H5.4723C6.65553 2.69359 7.58618 3.2311 7.58618 4.56142C7.32027 5.89172 6.40294 6.42923 5.2064 6.42923H4.46189V8.56579H5.4723C7.98502 8.56579 9.56711 6.96673 9.56711 4.56142C9.55383 2.29047 7.97172 0.691406 5.459 0.691406Z" fill="#262626"/>
<path d="M34.6278 0.691406H32.7798C32.6468 0.691406 32.5139 0.691406 32.5139 0.825784L27.7677 13.2286C27.7677 13.363 27.7677 13.4974 27.9006 13.4974H29.7486C29.7486 13.4974 29.8815 13.4974 29.8815 13.363L31.1977 10.0305H36.2099L37.5261 13.363C37.5261 13.4526 37.5704 13.4974 37.659 13.4974H39.507C39.64 13.4974 39.64 13.363 39.64 13.2286L34.8937 0.825784C34.8937 0.691406 34.7607 0.691406 34.6278 0.691406ZM31.8625 8.16266L33.7105 3.36547L35.5584 8.16266H31.8625Z" fill="#262626"/>
<path d="M70.1396 0.691504H68.1588C68.0258 0.691504 67.8928 0.691504 67.8928 0.825879L63.798 9.35869L59.5702 0.825879C59.5702 0.691504 59.4373 0.691504 59.1715 0.557129H57.3235C57.1905 0.557129 57.0576 0.691504 57.0576 0.825879V13.2287C57.0576 13.3631 57.1905 13.4975 57.3235 13.4975H59.1715C59.1715 13.4975 59.3043 13.4975 59.3043 13.3631V5.09901L62.6015 11.4953C62.6901 11.5848 62.7787 11.6296 62.8674 11.6296H64.5824C64.7154 11.6296 64.8483 11.6296 64.8483 11.4953L68.1454 4.96464V13.3631C68.1454 13.3631 68.1455 13.4975 68.2783 13.4975H70.1263C70.1263 13.4975 70.2593 13.4975 70.2593 13.3631V0.825879C70.2593 0.825879 70.2593 0.691504 70.1263 0.691504H70.1396Z" fill="#262626"/>
<path d="M49.8097 8.29703C51.6577 7.89392 52.708 6.42923 52.708 4.56141C52.708 2.29047 51.1259 0.691406 48.6132 0.691406H44.1196C44.1196 0.691406 43.9866 0.691406 43.9866 0.825784V13.363C43.9866 13.363 43.9866 13.4974 44.1196 13.4974H45.9676C45.9676 13.4974 46.1005 13.4974 46.1005 13.363V8.43139H47.6826L50.4479 13.363C50.4479 13.4526 50.4923 13.4974 50.5809 13.4974H52.6947C52.8277 13.4974 52.9606 13.363 52.8277 13.2286L49.7965 8.29703H49.8097ZM46.1138 6.42923V2.6936H48.6265C49.5438 2.6936 50.4745 3.2311 50.4745 4.56141C50.4745 5.89173 49.5571 6.42923 48.6265 6.42923H46.1138Z" fill="#262626"/>
</g>
</g>
</g>
<defs>
<clipPath id="clip0_399_229">
<rect width="128" height="14.03" fill="white"/>
</clipPath>
<clipPath id="clip1_399_229">
<rect width="128" height="14.03" fill="white"/>
</clipPath>
<clipPath id="clip2_399_229">
<rect width="127.921" height="14.03" fill="white" transform="translate(0.0397339)"/>
</clipPath>
</defs>
</svg>
