<svg width="18" height="14" viewBox="0 0 18 14" fill="none" xmlns="http://www.w3.org/2000/svg">
<path d="M14.9742 1.92578C16.9078 4.79688 17.8746 8.01953 17.523 11.7402C17.523 11.7402 17.523 11.7695 17.4937 11.7695C16.2047 12.7363 14.7398 13.4688 13.1871 13.9375C13.1578 13.9668 13.1578 13.9375 13.1285 13.9375C12.8062 13.4688 12.5133 13 12.2496 12.502C12.2496 12.4727 12.2496 12.4434 12.2789 12.4141C12.7477 12.2383 13.1871 12.0332 13.6266 11.7695C13.6559 11.7695 13.6559 11.7109 13.6266 11.6816C13.5387 11.623 13.4508 11.5645 13.3629 11.4766C13.3336 11.4766 13.3336 11.4766 13.3043 11.4766C10.5211 12.7656 7.47422 12.7656 4.66172 11.4766C4.63242 11.4766 4.60312 11.4766 4.60312 11.4766C4.51523 11.5645 4.42734 11.623 4.33945 11.6816C4.28086 11.7109 4.31016 11.7695 4.33945 11.7695C4.74961 12.0332 5.21836 12.2383 5.68711 12.4141C5.71641 12.4434 5.71641 12.4727 5.71641 12.502C5.45273 13 5.15977 13.4688 4.8375 13.9375C4.8082 13.9375 4.77891 13.9668 4.77891 13.9375C3.22617 13.4688 1.76133 12.7363 0.472265 11.7695C0.442968 11.7695 0.442968 11.7402 0.442968 11.7402C0.15 8.51758 0.765234 5.26562 2.9918 1.92578C2.9918 1.92578 2.9918 1.92578 3.02109 1.92578C4.13437 1.39844 5.30625 1.04688 6.50742 0.841797C6.53672 0.8125 6.56602 0.841797 6.56602 0.841797C6.7418 1.13477 6.88828 1.45703 7.00547 1.75C8.32383 1.54492 9.64219 1.54492 10.9605 1.75C11.0777 1.45703 11.2242 1.13477 11.4 0.841797C11.4 0.841797 11.4293 0.8125 11.4586 0.841797C12.6598 1.04688 13.8316 1.39844 14.9449 1.92578C14.9742 1.92578 14.9742 1.92578 14.9742 1.92578ZM6.12656 9.77734C6.97617 9.77734 7.6793 8.98633 7.6793 8.04883C7.6793 7.08203 7.00547 6.32031 6.12656 6.32031C5.27695 6.32031 4.57383 7.08203 4.57383 8.04883C4.57383 8.98633 5.27695 9.77734 6.12656 9.77734ZM11.8395 9.77734C12.7184 9.77734 13.3922 8.98633 13.3922 8.04883C13.4215 7.08203 12.7184 6.32031 11.8395 6.32031C10.9898 6.32031 10.316 7.08203 10.316 8.04883C10.316 8.98633 10.9898 9.77734 11.8395 9.77734Z" fill="white"/>
</svg>
