<svg width="32" height="26" viewBox="0 0 32 26" fill="none" xmlns="http://www.w3.org/2000/svg">
<path d="M27.1276 2.84625C30.7209 8.18179 32.5176 14.1707 31.8643 21.0851C31.8643 21.0851 31.8643 21.1395 31.8098 21.1395C29.4143 22.9362 26.6921 24.2973 23.8065 25.1684C23.7521 25.2229 23.7521 25.1684 23.6976 25.1684C23.0987 24.2973 22.5543 23.4262 22.0643 22.5006C22.0643 22.4462 22.0643 22.4462 22.0643 22.3918L22.1187 22.3373C22.9898 22.0106 23.8065 21.6295 24.6232 21.1395C24.6232 21.1395 24.6776 21.1395 24.6776 21.0851C24.6776 21.0306 24.6776 21.0306 24.6232 20.9762C24.4598 20.8673 24.2965 20.7584 24.1332 20.5951C24.0787 20.5951 24.0787 20.5951 24.0243 20.5951C18.8521 22.9906 13.1899 22.9906 7.9632 20.5951C7.90876 20.5951 7.85431 20.5951 7.85431 20.5951C7.69098 20.7584 7.52765 20.8673 7.36431 20.9762C7.30987 21.0306 7.30987 21.0306 7.30987 21.0851C7.30987 21.1395 7.30987 21.1395 7.36431 21.1395C8.12653 21.6295 8.99764 22.0106 9.86875 22.3373C9.86875 22.3373 9.86875 22.3918 9.9232 22.3918C9.9232 22.4462 9.9232 22.4462 9.9232 22.5006C9.4332 23.4262 8.88875 24.2973 8.28987 25.1684C8.23542 25.1684 8.18098 25.2229 8.18098 25.1684C5.29543 24.2973 2.57321 22.9362 0.17766 21.1395C0.123216 21.1395 0.123216 21.0851 0.123216 21.0851C-0.421227 15.0962 0.722104 9.0529 4.85987 2.84625C4.85987 2.84625 4.85987 2.84625 4.91432 2.84625C6.9832 1.86626 9.16098 1.21292 11.3932 0.831815C11.4476 0.77737 11.5021 0.831815 11.5021 0.831815C11.8287 1.37626 12.101 1.97514 12.3187 2.51959C14.7687 2.13848 17.2187 2.13848 19.6687 2.51959C19.8865 1.97514 20.1587 1.37626 20.4854 0.831815C20.4854 0.831815 20.5398 0.77737 20.5943 0.831815C22.8265 1.21292 25.0043 1.86626 27.0732 2.84625C27.1276 2.84625 27.1276 2.84625 27.1276 2.84625ZM10.6854 17.4373C12.2643 17.4373 13.571 15.9673 13.571 14.2251C13.571 12.4284 12.3187 11.0129 10.6854 11.0129C9.10653 11.0129 7.79987 12.4284 7.79987 14.2251C7.79987 15.9673 9.10653 17.4373 10.6854 17.4373ZM21.3021 17.4373C22.9354 17.4373 24.1876 15.9673 24.1876 14.2251C24.2421 12.4284 22.9354 11.0129 21.3021 11.0129C19.7232 11.0129 18.471 12.4284 18.471 14.2251C18.471 15.9673 19.7232 17.4373 21.3021 17.4373Z" fill="#254A76"/>
</svg>
