<svg width="16" height="12" viewBox="0 0 16 12" fill="none" xmlns="http://www.w3.org/2000/svg">
<path d="M0.153125 2.625C0.153125 1.59961 0.973437 0.75 2.02812 0.75H13.2781C14.3035 0.75 15.1531 1.59961 15.1531 2.625V10.125C15.1531 11.1797 14.3035 12 13.2781 12H2.02812C0.973437 12 0.153125 11.1797 0.153125 10.125V2.625ZM1.55937 2.625V3.29883L6.59844 7.42969C7.21367 7.92773 8.06328 7.92773 8.67852 7.42969L13.7469 3.29883V2.625C13.7469 2.39062 13.5125 2.15625 13.2781 2.15625H2.02812C1.76445 2.15625 1.55937 2.39062 1.55937 2.625ZM1.55937 5.11523V10.125C1.55937 10.3887 1.76445 10.5938 2.02812 10.5938H13.2781C13.5125 10.5938 13.7469 10.3887 13.7469 10.125V5.11523L9.58672 8.51367C8.44414 9.45117 6.83281 9.45117 5.69023 8.51367L1.55937 5.11523Z" fill="white"/>
</svg>
