<svg width="19" height="19" viewBox="0 0 19 19" fill="none" xmlns="http://www.w3.org/2000/svg">
<path d="M8.19724 1.5848L6.88051 2.10812C6.77574 2.14895 6.70588 2.25658 6.70588 2.37535C6.70588 2.49412 6.77574 2.60175 6.88051 2.64257L8.19724 3.16589L8.68971 4.56512C8.72812 4.67647 8.82941 4.7507 8.94118 4.7507C9.05294 4.7507 9.15423 4.67647 9.19265 4.56512L9.68511 3.16589L11.0018 2.64257C11.1066 2.60175 11.1765 2.49412 11.1765 2.37535C11.1765 2.25658 11.1066 2.14895 11.0018 2.10812L9.68511 1.5848L9.19265 0.185574C9.15423 0.0742296 9.05294 0 8.94118 0C8.82941 0 8.72812 0.0742296 8.68971 0.185574L8.19724 1.5848ZM1.61011 14.6752C0.956985 15.3692 0.956985 16.4975 1.61011 17.1953L2.81857 18.4795C3.47169 19.1735 4.53346 19.1735 5.19007 18.4795L18.5075 4.32388C19.1607 3.62983 19.1607 2.50154 18.5075 1.80378L17.2991 0.523319C16.646 -0.170728 15.5842 -0.170728 14.9276 0.523319L1.61011 14.6752ZM16.9254 3.06568L13.2581 6.96274L12.4443 6.09796L16.1116 2.20091L16.9254 3.06568ZM0.261949 4.34986C0.104779 4.41295 0 4.57255 0 4.7507C0 4.92885 0.104779 5.08844 0.261949 5.15154L2.23529 5.93837L2.97574 8.03536C3.03511 8.20237 3.18529 8.31372 3.35294 8.31372C3.52059 8.31372 3.67077 8.20237 3.73015 8.03536L4.47059 5.93837L6.44393 5.15154C6.6011 5.08844 6.70588 4.92885 6.70588 4.7507C6.70588 4.57255 6.6011 4.41295 6.44393 4.34986L4.47059 3.56302L3.73015 1.46604C3.67077 1.29902 3.52059 1.18767 3.35294 1.18767C3.18529 1.18767 3.03511 1.29902 2.97574 1.46604L2.23529 3.56302L0.261949 4.34986ZM12.5561 13.8512C12.3989 13.9143 12.2941 14.0739 12.2941 14.2521C12.2941 14.4302 12.3989 14.5898 12.5561 14.6529L14.5294 15.4398L15.2699 17.5367C15.3292 17.7038 15.4794 17.8151 15.6471 17.8151C15.8147 17.8151 15.9649 17.7038 16.0243 17.5367L16.7647 15.4398L18.7381 14.6529C18.8952 14.5898 19 14.4302 19 14.2521C19 14.0739 18.8952 13.9143 18.7381 13.8512L16.7647 13.0644L16.0243 10.9674C15.9649 10.8004 15.8147 10.6891 15.6471 10.6891C15.4794 10.6891 15.3292 10.8004 15.2699 10.9674L14.5294 13.0644L12.5561 13.8512Z" fill="white"/>
</svg>
