<svg width="14" height="14" viewBox="0 0 14 14" fill="none" xmlns="http://www.w3.org/2000/svg">
<path d="M12.4172 0.8125C12.9152 0.8125 13.3547 1.25195 13.3547 1.7793V13C13.3547 13.5273 12.9152 13.9375 12.4172 13.9375H1.13789C0.639844 13.9375 0.229688 13.5273 0.229688 13V1.7793C0.229688 1.25195 0.639844 0.8125 1.13789 0.8125H12.4172ZM4.18477 12.0625V5.82227H2.25117V12.0625H4.18477ZM3.21797 4.94336C3.8332 4.94336 4.33125 4.44531 4.33125 3.83008C4.33125 3.21484 3.8332 2.6875 3.21797 2.6875C2.57344 2.6875 2.07539 3.21484 2.07539 3.83008C2.07539 4.44531 2.57344 4.94336 3.21797 4.94336ZM11.4797 12.0625V8.63477C11.4797 6.96484 11.0988 5.64648 9.13594 5.64648C8.19844 5.64648 7.55391 6.17383 7.29023 6.67188H7.26094V5.82227H5.41523V12.0625H7.34883V8.98633C7.34883 8.16602 7.49531 7.375 8.5207 7.375C9.5168 7.375 9.5168 8.3125 9.5168 9.01562V12.0625H11.4797Z" fill="white"/>
</svg>
