<svg width="16" height="16" viewBox="0 0 16 16" fill="none" xmlns="http://www.w3.org/2000/svg">
<path d="M13.9676 0.326172C15.0223 0.326172 15.8426 1.17578 15.8426 2.20117V10.6094C15.8426 11.6055 14.993 12.4551 13.9676 12.4551H9.74883L6.08672 15.1797C5.85234 15.3555 5.53008 15.209 5.53008 14.916V12.4551H2.71758C1.66289 12.4551 0.842578 11.6348 0.842578 10.6094V2.20117C0.842578 1.17578 1.66289 0.326172 2.71758 0.326172H13.9676ZM14.4656 10.6387V2.20117C14.4656 1.9668 14.2312 1.73242 13.9969 1.73242H2.74687C2.4832 1.73242 2.27812 1.9668 2.27812 2.20117V10.6387C2.27812 10.9023 2.4832 11.1074 2.74687 11.1074H6.96562V12.8652L9.30937 11.1074H13.9969C14.2312 11.1074 14.4656 10.9023 14.4656 10.6387Z" fill="white"/>
</svg>
