<svg width="12" height="20" viewBox="0 0 12 20" fill="none" xmlns="http://www.w3.org/2000/svg">
<path d="M1.22038 18.9496C0.956923 18.6859 0.808924 18.3283 0.808924 17.9554C0.808924 17.5825 0.956923 17.2249 1.22038 16.9612L8.17661 10.0002L1.22038 3.03929C0.96439 2.77406 0.822743 2.41884 0.825946 2.05013C0.829147 1.68141 0.976941 1.32871 1.23749 1.06798C1.49805 0.807247 1.85052 0.659355 2.21898 0.656151C2.58745 0.652946 2.94243 0.794689 3.20747 1.05085L11.1573 9.006C11.4207 9.26972 11.5687 9.62734 11.5687 10.0002C11.5687 10.3731 11.4207 10.7307 11.1573 10.9944L3.20747 18.9496C2.94394 19.2132 2.58656 19.3613 2.21392 19.3613C1.84129 19.3613 1.48391 19.2132 1.22038 18.9496Z" fill="white"/>
</svg>
