<svg width="12" height="20" viewBox="0 0 12 20" fill="none" xmlns="http://www.w3.org/2000/svg">
<path d="M10.7806 1.0504C11.044 1.31411 11.192 1.67173 11.192 2.04462C11.192 2.41751 11.044 2.77513 10.7806 3.03884L3.82434 9.99978L10.7806 16.9607C11.0366 17.2259 11.1782 17.5812 11.175 17.9499C11.1718 18.3186 11.024 18.6713 10.7635 18.932C10.5029 19.1928 10.1504 19.3406 9.78197 19.3439C9.41351 19.3471 9.05853 19.2053 8.79349 18.9492L0.843704 10.994C0.580251 10.7303 0.432251 10.3727 0.432251 9.99978C0.432251 9.62689 0.580251 9.26927 0.843704 9.00556L8.79349 1.0504C9.05702 0.786772 9.4144 0.638672 9.78703 0.638672C10.1597 0.638672 10.517 0.786772 10.7806 1.0504Z" fill="white"/>
</svg>
