<svg width="26" height="24" viewBox="0 0 26 24" fill="none" xmlns="http://www.w3.org/2000/svg">
<path d="M11.9447 0.929495C12.2439 0.00790071 13.5477 0.00789857 13.8469 0.929493L16.0365 7.67355C16.1704 8.08568 16.5544 8.36475 16.9877 8.36475H24.075C25.0435 8.36475 25.4464 9.60397 24.6631 10.1735L18.928 14.3435C18.5778 14.5982 18.4312 15.0493 18.565 15.4611L20.7553 22.2073C21.0544 23.1287 19.9996 23.8946 19.216 23.3249L13.4839 19.1571C13.1333 18.9022 12.6583 18.9022 12.3077 19.1571L6.57557 23.3249C5.79201 23.8946 4.7372 23.1287 5.03637 22.2073L7.22667 15.4611C7.36038 15.0493 7.21384 14.5982 6.86362 14.3435L1.12853 10.1736C0.345174 9.60397 0.74807 8.36475 1.71661 8.36475H8.80395C9.23726 8.36475 9.62127 8.08568 9.75508 7.67355L11.9447 0.929495Z" fill="#E7E94F"/>
</svg>
