<svg width="17" height="17" viewBox="0 0 17 17" fill="none" xmlns="http://www.w3.org/2000/svg">
<path d="M8.5 16.5C10.6217 16.5 12.6566 15.6571 14.1569 14.1569C15.6571 12.6566 16.5 10.6217 16.5 8.5C16.5 6.37827 15.6571 4.34344 14.1569 2.84315C12.6566 1.34285 10.6217 0.5 8.5 0.5C6.37827 0.5 4.34344 1.34285 2.84315 2.84315C1.34285 4.34344 0.5 6.37827 0.5 8.5C0.5 10.6217 1.34285 12.6566 2.84315 14.1569C4.34344 15.6571 6.37827 16.5 8.5 16.5ZM12.0312 7.03125L8.03125 11.0312C7.7375 11.325 7.2625 11.325 6.97188 11.0312L4.97188 9.03125C4.67813 8.7375 4.67813 8.2625 4.97188 7.97188C5.26562 7.68125 5.74062 7.67813 6.03125 7.97188L7.5 9.44063L10.9688 5.96875C11.2625 5.675 11.7375 5.675 12.0281 5.96875C12.3187 6.2625 12.3219 6.7375 12.0281 7.02812L12.0312 7.03125Z" fill="#254A76"/>
</svg>
