<svg width="29" height="18" viewBox="0 0 29 18" fill="none" xmlns="http://www.w3.org/2000/svg">
<path d="M6.525 18C2.92266 18 0 15.4085 0 12.2143C0 9.69107 1.82156 7.54554 4.35906 6.75402C4.35453 6.64554 4.35 6.53705 4.35 6.42857C4.35 2.87679 7.59438 0 11.6 0C14.287 0 16.6297 1.29375 17.8848 3.22232C18.5736 2.8125 19.4073 2.57143 20.3 2.57143C22.7016 2.57143 24.65 4.29911 24.65 6.42857C24.65 6.91875 24.5458 7.38482 24.36 7.81875C27.0063 8.29286 29 10.3701 29 12.8571C29 15.6978 26.4036 18 23.2 18H6.525ZM10.1047 9.28125C9.67875 9.65893 9.67875 10.2696 10.1047 10.6433C10.5306 11.017 11.2194 11.021 11.6408 10.6433L13.408 9.07634V14.4643C13.408 14.9987 13.8928 15.4286 14.4955 15.4286C15.0981 15.4286 15.583 14.9987 15.583 14.4643V9.07634L17.3502 10.6433C17.7761 11.021 18.4648 11.021 18.8862 10.6433C19.3077 10.2656 19.3122 9.65491 18.8862 9.28125L15.2612 6.06697C14.8353 5.68929 14.1466 5.68929 13.7252 6.06697L10.1002 9.28125H10.1047Z" fill="white"/>
</svg>
