<svg width="14" height="14" viewBox="0 0 14 14" fill="none" xmlns="http://www.w3.org/2000/svg">
<path d="M11.7258 2.74609C12.9563 3.97656 13.718 5.58789 13.718 7.3457C13.718 10.9199 10.7297 13.8496 7.12617 13.8496C6.04219 13.8496 4.9875 13.5566 4.0207 13.0586L0.592969 13.9375L1.50117 10.5684C0.944531 9.60156 0.622266 8.48828 0.622266 7.31641C0.622266 3.74219 3.55195 0.8125 7.12617 0.8125C8.88398 0.8125 10.5246 1.51562 11.7258 2.74609ZM7.12617 12.7363C10.1145 12.7363 12.6047 10.3047 12.6047 7.3457C12.6047 5.88086 11.9895 4.5332 10.9641 3.50781C9.93867 2.48242 8.59102 1.92578 7.15547 1.92578C4.16719 1.92578 1.73555 4.35742 1.73555 7.31641C1.73555 8.3418 2.02852 9.33789 2.55586 10.2168L2.70234 10.4219L2.1457 12.4141L4.19648 11.8574L4.37227 11.9746C5.22188 12.4727 6.15938 12.7363 7.12617 12.7363ZM10.1145 8.69336C10.2609 8.78125 10.3781 8.81055 10.4074 8.89844C10.466 8.95703 10.466 9.2793 10.3195 9.66016C10.173 10.041 9.52852 10.3926 9.23555 10.4219C8.7082 10.5098 8.29805 10.4805 7.27266 10.0117C5.63203 9.30859 4.57734 7.66797 4.48945 7.58008C4.40156 7.46289 3.84492 6.70117 3.84492 5.88086C3.84492 5.08984 4.25508 4.70898 4.40156 4.5332C4.54805 4.35742 4.72383 4.32812 4.84102 4.32812C4.92891 4.32812 5.04609 4.32812 5.13398 4.32812C5.25117 4.32812 5.36836 4.29883 5.51484 4.62109C5.63203 4.94336 5.98359 5.73438 6.01289 5.82227C6.04219 5.91016 6.07148 5.99805 6.01289 6.11523C5.71992 6.73047 5.36836 6.70117 5.54414 6.99414C6.18867 8.07812 6.80391 8.45898 7.7707 8.92773C7.91719 9.01562 8.00508 8.98633 8.12227 8.89844C8.21016 8.78125 8.53242 8.40039 8.62031 8.25391C8.7375 8.07812 8.85469 8.10742 9.00117 8.16602C9.14766 8.22461 9.93867 8.60547 10.1145 8.69336Z" fill="white"/>
</svg>
